<?xml version="1.0" standalone="no"?>
<!DOCTYPE svg PUBLIC "-//W3C//DTD SVG 20010904//EN"
 "http://www.w3.org/TR/2001/REC-SVG-20010904/DTD/svg10.dtd">
<svg version="1.0" xmlns="http://www.w3.org/2000/svg"
 width="299.000000pt" height="374.000000pt" viewBox="0 0 299.000000 374.000000"
 preserveAspectRatio="xMidYMid meet">

<g transform="translate(0.000000,374.000000) scale(0.100000,-0.100000)"
fill="#000000" stroke="none">
<path d="M1212 3640 c-43 -114 -63 -298 -35 -331 9 -11 8 -19 -3 -33 -13 -19
-14 -19 -14 7 0 15 -4 27 -10 27 -5 0 -10 10 -10 23 0 13 -6 29 -12 35 -9 9
-12 52 -12 142 1 72 -3 130 -7 130 -15 0 -48 -61 -65 -117 -21 -73 -27 -258
-9 -293 8 -15 12 -36 9 -47 -4 -16 0 -22 20 -27 l25 -6 -20 -35 c-18 -30 -23
-33 -35 -21 -8 8 -14 24 -14 35 0 12 -6 21 -13 21 -7 0 -18 21 -26 48 -7 26
-16 56 -21 67 -5 11 -14 37 -20 58 -7 21 -15 35 -18 32 -16 -16 -28 -86 -26
-150 4 -106 4 -107 17 -129 6 -12 10 -26 9 -32 -1 -6 5 -17 13 -24 8 -7 15
-21 15 -31 0 -11 3 -19 8 -19 25 -1 32 -17 19 -48 l-13 -31 -32 50 c-18 27
-37 47 -41 44 -5 -3 -12 6 -15 20 -3 13 -15 29 -26 35 -11 6 -20 17 -20 25 0
7 -6 26 -14 42 -7 15 -24 49 -36 76 -37 77 -52 63 -46 -40 3 -49 6 -99 6 -113
1 -14 6 -30 12 -37 5 -7 11 -24 13 -40 1 -15 14 -36 27 -48 13 -11 22 -27 20
-33 -2 -7 10 -18 27 -25 20 -7 29 -17 28 -30 -2 -15 19 -36 40 -43 2 0 -5 -16
-15 -35 -16 -31 -21 -34 -37 -25 -11 6 -26 19 -33 29 -7 9 -19 17 -25 17 -7 0
-17 10 -22 23 -6 12 -16 22 -24 22 -12 0 -53 68 -123 203 -25 50 -54 -13 -37
-82 5 -23 11 -51 13 -63 2 -13 9 -29 15 -37 7 -8 10 -19 7 -24 -3 -6 1 -15 10
-22 8 -7 13 -19 10 -26 -3 -7 2 -18 11 -25 8 -7 19 -22 24 -34 31 -66 49 -85
86 -85 16 0 20 -5 16 -19 -5 -20 21 -36 40 -24 7 4 8 0 3 -13 -4 -10 -15 -41
-23 -69 l-15 -49 -14 27 c-16 31 -34 36 -34 10 0 -11 -7 -4 -18 17 -21 39 -42
50 -42 23 -1 -17 -2 -17 -16 2 -8 11 -23 20 -32 20 -9 0 -23 14 -31 30 -8 17
-18 33 -23 36 -6 4 -15 15 -21 27 -45 78 -99 162 -107 167 -19 12 2 -166 22
-192 6 -7 8 -19 5 -27 -3 -7 7 -26 23 -41 16 -15 26 -33 23 -41 -3 -7 8 -21
24 -31 16 -10 27 -25 25 -34 -2 -10 8 -21 27 -29 17 -7 28 -17 25 -22 -9 -14
15 -28 47 -28 15 0 32 -7 39 -15 7 -9 21 -13 30 -10 17 5 17 3 2 -38 l-16 -45
-20 25 c-17 23 -21 24 -31 9 -11 -15 -15 -14 -39 5 -14 11 -30 18 -34 15 -10
-6 -63 10 -104 31 -17 9 -28 10 -28 4 0 -16 -158 146 -177 182 -16 30 -18 31
-21 9 -4 -28 18 -102 49 -164 5 -10 9 -24 9 -33 0 -8 9 -19 20 -25 11 -6 17
-17 14 -25 -4 -9 7 -17 35 -26 23 -7 41 -18 41 -26 0 -7 14 -16 30 -19 17 -4
30 -12 30 -19 0 -14 22 -25 51 -25 10 0 18 -6 16 -12 -1 -8 13 -15 33 -18 22
-3 35 -11 35 -20 0 -9 11 -16 28 -18 19 -2 27 -8 23 -17 -2 -7 -10 -40 -17
-74 -6 -34 -14 -61 -18 -61 -3 0 -12 9 -19 20 -16 26 -52 27 -52 0 0 -17 -2
-17 -25 6 -21 21 -28 24 -41 13 -11 -9 -18 -9 -26 -1 -16 16 -48 15 -48 0 0
-22 -72 -14 -122 13 -10 5 -26 9 -37 9 -10 0 -24 7 -31 15 -7 8 -16 15 -21 15
-5 0 -32 18 -61 40 -55 41 -68 47 -68 30 0 -27 90 -140 111 -140 5 0 9 -7 9
-16 0 -9 13 -21 29 -27 16 -6 32 -19 34 -29 4 -12 15 -18 35 -18 17 0 32 -6
36 -15 3 -8 17 -15 31 -15 14 0 34 -5 44 -12 15 -9 28 -9 55 -1 32 10 35 9 38
-11 2 -16 10 -21 31 -21 19 1 26 -3 22 -12 -7 -20 22 -28 42 -12 15 13 16 11
10 -11 -3 -14 -9 -56 -12 -93 -7 -63 -8 -67 -22 -47 -8 12 -23 20 -32 18 -9
-2 -30 5 -45 15 -15 10 -34 16 -41 13 -8 -3 -27 1 -42 9 -24 13 -29 13 -38 1
-8 -10 -16 -11 -28 -4 -12 6 -22 6 -32 -2 -10 -9 -19 -9 -35 0 -15 8 -25 8
-34 1 -10 -8 -17 -7 -26 4 -9 11 -22 14 -42 10 -20 -5 -30 -2 -34 9 -3 9 -13
16 -21 16 -9 0 -36 18 -60 41 -47 43 -59 45 -49 5 9 -36 134 -186 156 -186 4
0 17 -9 30 -20 13 -11 36 -20 52 -20 15 0 28 -5 28 -11 0 -7 14 -10 35 -7 29
3 35 1 35 -15 0 -17 5 -19 45 -13 38 6 44 5 39 -8 -5 -13 2 -16 35 -16 32 0
39 -3 35 -15 -9 -23 22 -28 52 -9 l27 18 -6 -39 c-4 -22 -7 -51 -7 -64 0 -23
-1 -23 -18 -8 -25 23 -42 21 -42 -4 0 -20 -1 -20 -31 6 -34 28 -56 28 -51 1 3
-15 -1 -14 -26 4 -28 21 -59 20 -47 -1 9 -13 -2 -11 -37 7 -25 13 -32 14 -39
3 -7 -11 -14 -10 -39 4 -17 11 -30 14 -30 7 0 -7 -6 -8 -19 0 -11 5 -26 10
-35 10 -16 0 -131 73 -141 90 -11 19 -23 10 -17 -12 6 -26 127 -148 147 -148
7 0 15 -9 18 -20 4 -15 14 -20 41 -20 24 0 36 -5 36 -14 0 -19 24 -27 59 -20
27 6 29 4 24 -16 -6 -22 -4 -23 39 -17 43 6 46 5 40 -15 -4 -18 -2 -20 24 -16
16 3 37 9 47 13 16 6 18 4 15 -16 -2 -19 2 -25 20 -27 13 -2 32 4 43 14 19 17
19 16 18 -42 0 -57 -1 -58 -16 -37 -20 30 -53 30 -53 1 l0 -21 -24 23 c-24 22
-56 22 -56 1 0 -6 -11 1 -25 14 -28 29 -43 31 -51 10 -5 -12 -10 -12 -32 5
-18 14 -34 19 -52 15 -18 -4 -31 -1 -40 10 -7 8 -17 15 -23 15 -18 0 -121 52
-157 80 -53 40 -60 43 -60 24 0 -9 18 -34 40 -56 22 -22 40 -43 40 -47 0 -3
16 -19 36 -36 20 -16 46 -40 58 -53 13 -12 30 -22 38 -22 9 0 18 -9 21 -20 3
-13 14 -20 29 -20 28 0 42 -9 51 -33 4 -10 17 -17 33 -17 15 0 32 -7 38 -16 8
-10 27 -16 49 -16 32 0 37 -3 37 -24 0 -27 27 -33 49 -12 11 11 12 7 6 -20 -9
-45 19 -56 50 -20 l22 26 7 -46 c3 -26 9 -59 12 -74 5 -23 3 -26 -14 -21 -16
4 -21 -1 -24 -19 -3 -22 -4 -21 -21 10 -18 32 -42 42 -49 20 -3 -7 -17 2 -36
22 -27 30 -33 33 -50 23 -17 -10 -23 -8 -43 13 -13 13 -30 23 -39 22 -8 -1
-26 5 -40 15 -14 10 -26 13 -30 7 -4 -6 -17 1 -30 15 -13 14 -29 24 -36 21 -7
-2 -22 6 -35 20 -12 13 -27 24 -33 25 -11 0 -30 21 -82 87 -23 28 -54 43 -54
26 0 -14 65 -126 86 -150 13 -14 24 -29 24 -34 0 -5 13 -19 29 -31 16 -12 27
-27 24 -35 -2 -7 7 -20 22 -30 15 -10 31 -28 36 -41 5 -15 20 -26 39 -30 21
-4 29 -10 26 -20 -4 -9 8 -20 34 -32 22 -10 37 -21 33 -25 -10 -10 17 -26 45
-26 15 0 26 -7 29 -20 3 -13 14 -20 28 -20 36 0 54 -10 48 -26 -4 -10 4 -14
31 -14 20 0 36 -4 36 -10 0 -18 38 -10 68 15 l29 24 23 -87 c28 -105 64 -197
113 -284 46 -83 62 -97 84 -75 15 15 15 18 -8 36 -36 28 -72 100 -117 233 -22
65 -39 118 -38 118 2 0 18 -7 36 -16 31 -16 34 -16 45 0 8 10 27 16 54 16 34
0 41 3 39 17 -2 14 6 19 37 23 48 7 66 16 59 33 -3 8 12 17 41 25 28 7 45 18
45 27 0 8 7 15 15 15 28 0 75 30 75 48 0 9 8 22 18 28 9 6 31 31 47 55 16 24
37 53 47 64 23 27 50 93 40 99 -4 2 -33 -19 -65 -47 -77 -71 -113 -97 -130
-97 -7 0 -22 -9 -31 -19 -10 -11 -24 -17 -33 -14 -8 3 -27 -7 -43 -22 -24 -23
-32 -26 -44 -16 -11 9 -18 6 -36 -16 -15 -18 -24 -23 -27 -15 -6 17 -33 15
-55 -4 -15 -14 -20 -15 -33 -4 -13 11 -21 10 -45 -9 -24 -17 -30 -19 -30 -6 0
24 -26 17 -46 -12 l-18 -28 -12 55 c-7 30 -15 74 -19 98 l-6 42 37 -25 c41
-28 74 -33 74 -10 0 11 11 15 41 15 32 0 42 4 46 19 4 16 11 18 44 14 35 -5
41 -3 46 16 4 15 13 21 34 21 17 0 37 9 46 20 10 11 26 20 36 20 10 0 28 11
40 23 12 13 32 29 45 36 12 6 22 18 22 25 0 7 8 17 18 22 24 12 126 123 120
130 -7 6 -115 -53 -124 -67 -3 -5 -13 -9 -23 -9 -10 0 -26 -9 -36 -20 -12 -14
-25 -18 -42 -14 -15 4 -30 0 -42 -10 -10 -9 -25 -14 -33 -11 -8 3 -23 -3 -33
-15 -16 -18 -19 -18 -30 -4 -10 14 -15 13 -42 -10 -37 -31 -57 -34 -48 -6 8
25 -2 25 -40 0 -38 -25 -48 -25 -40 -1 8 25 -7 33 -39 21 -21 -7 -26 -6 -26 5
0 20 -16 19 -39 -4 -18 -18 -19 -18 -25 18 -3 20 -6 51 -6 70 l0 34 24 -22
c28 -26 62 -24 59 3 -1 15 6 17 40 15 68 -3 80 -1 73 16 -4 12 4 15 45 15 46
0 50 2 44 20 -6 17 -2 20 29 20 19 0 41 7 50 15 8 8 23 15 34 15 11 0 31 9 45
20 14 11 29 20 35 20 5 0 17 9 27 20 10 11 23 20 29 20 7 0 19 8 28 18 9 9 35
35 58 57 71 69 74 101 5 55 -16 -11 -36 -20 -43 -20 -8 0 -25 -9 -39 -19 -13
-11 -30 -18 -38 -15 -7 3 -24 -2 -37 -10 -14 -9 -27 -13 -30 -10 -4 3 -20 -2
-37 -11 -18 -9 -36 -13 -42 -10 -5 4 -22 -1 -36 -11 -19 -12 -28 -13 -31 -6
-6 18 -23 14 -49 -10 l-24 -22 -6 22 c-7 27 -17 28 -54 1 -24 -17 -29 -18 -29
-5 0 21 -19 20 -43 -1 -18 -17 -19 -17 -28 0 -10 16 -12 16 -40 -4 l-30 -21 2
61 c2 52 5 61 18 55 38 -16 61 -16 61 -1 0 12 12 17 48 19 28 2 46 8 45 14 -1
6 16 14 37 18 24 4 40 12 40 20 0 17 22 26 61 26 16 0 29 5 29 10 0 6 10 10
23 10 30 0 73 24 69 39 -1 6 10 17 25 24 35 15 163 137 163 155 0 18 -42 6
-117 -35 -34 -18 -68 -33 -76 -33 -8 0 -22 -9 -32 -20 -13 -15 -21 -17 -31 -9
-10 8 -21 6 -43 -10 -21 -15 -31 -18 -34 -9 -3 10 -11 9 -34 -4 -22 -13 -33
-14 -41 -6 -8 8 -15 8 -27 -2 -14 -11 -18 -11 -25 -1 -6 11 -12 11 -30 -2 -18
-12 -26 -13 -41 -4 -15 9 -23 7 -43 -12 l-24 -23 4 39 c2 21 6 64 9 96 4 33
11 57 18 58 7 0 30 1 52 2 31 2 40 6 39 20 -1 11 5 17 18 17 29 0 58 18 58 37
0 13 8 14 50 9 42 -6 50 -4 50 10 0 11 5 14 16 10 41 -16 65 -16 133 -2 76 16
141 49 141 71 0 20 -20 23 -72 9 -28 -7 -50 -8 -54 -3 -3 5 -16 6 -29 3 -12
-3 -26 -1 -29 5 -4 6 -15 11 -26 11 -10 0 -21 7 -24 16 -4 10 -14 14 -26 11
-11 -3 -20 -1 -20 3 0 13 -32 17 -62 9 -21 -6 -28 -4 -28 7 0 21 -23 17 -65
-12 -25 -17 -40 -22 -45 -14 -7 12 -40 3 -40 -11 0 -5 -4 -9 -8 -9 -7 0 14
129 22 137 2 2 15 -6 29 -18 28 -21 47 -18 47 7 0 12 9 14 45 8 28 -4 45 -2
45 4 0 6 16 8 40 5 26 -4 40 -2 40 6 0 6 17 11 39 11 25 0 41 5 45 15 3 8 17
15 31 15 14 0 28 7 32 15 3 9 22 24 42 35 21 10 55 38 76 62 49 54 32 62 -51
24 -31 -14 -66 -26 -78 -26 -12 0 -26 -4 -32 -9 -15 -14 -73 -21 -80 -10 -4 6
-14 5 -29 -5 -19 -13 -24 -13 -28 -2 -8 19 -107 19 -128 0 -15 -13 -17 -12
-22 7 -3 11 -10 18 -16 14 -6 -3 -11 0 -11 7 0 25 17 40 41 37 27 -4 52 8 44
21 -3 5 8 8 23 8 35 -1 55 9 46 24 -5 8 5 9 33 5 32 -5 42 -3 47 9 3 8 10 13
16 9 28 -17 234 125 213 146 -8 8 -90 -12 -115 -27 -17 -11 -71 -11 -85 -1 -9
6 -21 4 -38 -7 -30 -20 -35 -20 -35 -1 0 21 -23 19 -53 -5 -29 -23 -38 -25
-34 -7 1 7 -7 11 -20 10 -21 -2 -21 -2 -6 37 14 34 19 39 37 33 37 -12 71 -9
68 6 -2 10 5 12 29 7 40 -8 79 2 79 20 0 9 11 14 29 14 16 0 36 7 45 15 8 8
24 15 35 15 12 0 30 9 41 20 11 11 24 20 29 20 14 0 71 69 71 85 0 19 -10 19
-35 1 -19 -12 -51 -22 -103 -31 -13 -2 -30 -9 -38 -16 -13 -10 -17 -10 -23 0
-7 10 -15 9 -41 -4 -26 -13 -34 -14 -41 -4 -6 10 -13 10 -34 1 -19 -9 -31 -9
-40 -2 -7 6 -20 7 -29 4 -15 -6 -15 -3 -5 19 10 22 15 24 42 16 20 -5 35 -5
41 1 6 6 25 10 43 10 21 0 36 6 39 15 4 9 19 15 39 15 20 0 35 6 39 15 3 8 12
15 20 15 17 0 76 65 76 85 0 17 -21 20 -36 5 -10 -10 -36 -18 -79 -24 -11 -1
-30 -8 -43 -15 -18 -10 -22 -9 -22 4 0 17 -25 21 -35 5 -5 -8 -11 -8 -20 0 -7
6 -21 7 -31 3 -17 -6 -17 -4 2 28 18 30 24 33 56 31 29 -3 36 0 41 19 4 15 11
20 22 15 24 -9 65 4 65 20 0 8 4 14 10 14 13 0 60 75 60 95 0 20 -12 19 -41
-4 -13 -10 -29 -16 -35 -14 -6 2 -17 -3 -23 -11 -7 -8 -19 -12 -27 -9 -8 3
-20 0 -28 -6 -24 -20 -28 18 -7 60 40 77 43 79 78 73 25 -5 34 -2 39 10 3 9
17 16 29 16 26 0 100 64 91 78 -3 5 -18 7 -32 4 -19 -3 -25 -1 -20 7 4 6 14
11 22 11 18 0 124 77 124 90 0 6 -26 9 -60 8 -33 -2 -60 0 -60 4 0 5 7 8 17 8
23 0 105 49 98 60 -3 4 12 19 32 31 35 22 36 24 14 29 l-23 5 21 19 c11 10 18
23 15 27 -3 5 0 9 5 9 14 0 91 70 91 82 0 6 -11 8 -27 4 -16 -4 -37 -8 -47
-10 -10 -1 -26 -12 -35 -23 -9 -11 -21 -18 -28 -16 -6 2 -18 -3 -27 -12 -9 -9
-20 -14 -26 -10 -5 3 -19 -9 -30 -27 -18 -29 -20 -30 -20 -10 0 33 -18 27 -43
-15 l-22 -38 -6 71 c-4 40 -11 80 -17 90 -10 18 -11 17 -20 -6z"/>
<path d="M2100 3635 c-10 -13 -8 -18 12 -34 35 -28 71 -100 116 -233 22 -65
39 -118 38 -118 -2 0 -18 7 -36 16 -31 16 -34 16 -45 0 -8 -10 -27 -16 -54
-16 -34 0 -41 -3 -39 -17 2 -14 -6 -19 -37 -23 -48 -7 -66 -16 -59 -33 3 -8
-12 -17 -41 -25 -28 -7 -45 -18 -45 -27 0 -8 -7 -15 -15 -15 -28 0 -75 -30
-75 -48 0 -9 -8 -22 -18 -28 -9 -6 -31 -31 -47 -55 -16 -24 -37 -53 -47 -64
-23 -27 -50 -93 -40 -99 4 -2 33 19 65 47 77 71 113 97 130 97 7 0 22 9 31 19
10 11 24 17 33 14 8 -3 27 7 43 22 24 23 32 26 44 16 11 -9 18 -6 36 16 15 18
24 23 27 16 6 -18 33 -16 55 3 15 14 20 15 33 4 13 -11 21 -10 45 9 24 17 30
19 30 6 0 -24 26 -17 46 12 l18 28 12 -55 c7 -30 15 -74 19 -98 l6 -42 -37 25
c-41 28 -74 33 -74 10 0 -11 -11 -15 -41 -15 -32 0 -42 -4 -46 -19 -4 -16 -11
-18 -44 -14 -35 5 -41 3 -46 -16 -4 -15 -13 -21 -34 -21 -17 0 -37 -9 -46 -20
-10 -11 -26 -20 -36 -20 -10 0 -28 -11 -40 -23 -12 -13 -32 -29 -44 -36 -13
-6 -23 -18 -23 -25 0 -7 -8 -17 -18 -22 -24 -12 -126 -123 -120 -130 7 -6 115
53 124 67 3 5 13 9 23 9 10 0 26 9 36 20 12 14 25 18 42 14 15 -4 30 0 42 10
10 9 25 14 33 11 8 -3 23 3 33 15 16 18 19 18 30 4 10 -14 15 -13 42 10 37 31
57 34 48 6 -8 -25 2 -25 40 0 38 25 48 25 40 1 -8 -25 7 -33 39 -21 21 7 26 6
26 -5 0 -20 16 -19 39 4 18 18 19 18 25 -18 3 -20 6 -51 6 -70 l0 -34 -24 22
c-28 26 -62 24 -59 -3 1 -15 -6 -17 -40 -15 -68 3 -80 1 -73 -16 4 -12 -4 -15
-45 -15 -46 0 -50 -2 -44 -20 6 -17 2 -20 -29 -20 -19 0 -41 -7 -50 -15 -8 -8
-23 -15 -34 -15 -11 0 -31 -9 -45 -20 -14 -11 -29 -20 -35 -20 -5 0 -17 -9
-27 -20 -10 -11 -23 -20 -29 -20 -7 0 -19 -8 -28 -17 -9 -10 -35 -36 -58 -58
-71 -69 -74 -101 -5 -55 17 11 36 20 43 20 8 0 25 9 39 19 13 11 30 18 38 15
7 -3 24 2 37 10 14 9 27 13 30 10 4 -3 20 2 37 11 18 9 36 13 42 10 5 -4 22 1
36 11 19 12 28 13 31 6 6 -18 23 -14 49 10 l24 22 6 -22 c7 -27 17 -28 54 -1
24 17 29 18 29 5 0 -21 19 -20 43 1 18 17 19 17 28 0 10 -16 12 -16 40 4 l30
21 -2 -61 c-2 -52 -5 -61 -18 -55 -38 16 -61 16 -61 1 0 -12 -12 -17 -47 -19
-29 -2 -47 -8 -46 -14 1 -6 -16 -14 -37 -18 -24 -4 -40 -12 -40 -20 0 -17 -22
-26 -61 -26 -16 0 -29 -4 -29 -10 0 -5 -10 -10 -22 -10 -31 0 -74 -24 -70 -39
1 -6 -10 -17 -25 -24 -35 -15 -163 -137 -163 -155 0 -18 42 -6 117 35 34 18
68 33 76 33 8 0 22 9 32 20 13 15 21 17 31 9 10 -8 21 -6 43 10 21 15 31 18
34 9 3 -10 11 -9 34 4 22 13 33 14 41 6 8 -8 15 -8 27 2 14 11 18 11 25 1 6
-11 12 -11 30 2 18 12 26 13 41 4 15 -9 23 -7 43 12 l24 23 -4 -39 c-2 -21 -6
-64 -9 -95 -4 -34 -11 -58 -18 -59 -7 0 -30 -1 -52 -2 -31 -2 -40 -6 -39 -19
1 -12 -5 -18 -18 -18 -29 0 -58 -18 -58 -37 0 -13 -8 -14 -50 -9 -42 6 -50 4
-50 -10 0 -11 -5 -14 -16 -10 -41 16 -65 16 -133 2 -76 -16 -141 -49 -141 -71
0 -20 20 -23 72 -9 28 7 50 8 54 3 3 -5 16 -6 29 -3 12 3 26 1 29 -5 4 -6 15
-11 26 -11 10 0 21 -7 24 -16 4 -10 14 -14 26 -11 11 3 20 1 20 -3 0 -13 32
-17 63 -9 20 6 27 4 27 -7 0 -21 23 -17 65 12 25 17 40 22 45 14 7 -12 40 -3
40 11 0 5 4 9 8 9 7 0 -14 -129 -22 -137 -2 -2 -15 6 -29 18 -28 21 -47 18
-47 -7 0 -12 -9 -14 -45 -8 -28 4 -45 2 -45 -4 0 -6 -16 -8 -40 -5 -26 4 -40
2 -40 -6 0 -6 -17 -11 -39 -11 -25 0 -41 -5 -45 -15 -3 -8 -17 -15 -31 -15
-14 0 -28 -7 -32 -15 -3 -9 -22 -24 -42 -35 -21 -10 -55 -38 -76 -62 -49 -54
-32 -62 51 -24 31 14 66 26 78 26 12 0 26 4 31 9 16 14 74 21 81 10 4 -6 14
-5 29 5 19 13 24 13 28 2 8 -19 107 -19 128 0 15 13 17 12 22 -7 3 -11 10 -18
16 -14 6 3 11 0 11 -7 0 -25 -17 -40 -41 -37 -27 4 -52 -8 -44 -21 3 -5 -8 -8
-23 -8 -35 1 -55 -9 -46 -24 5 -8 -5 -9 -33 -5 -32 5 -42 3 -47 -9 -3 -8 -10
-13 -16 -9 -28 17 -234 -125 -213 -146 8 -8 90 12 115 27 17 11 71 11 85 1 9
-6 21 -4 38 7 30 20 35 20 35 1 0 -21 23 -19 53 5 29 23 38 25 35 8 -2 -8 6
-12 19 -11 21 2 21 2 6 -37 -14 -34 -19 -39 -37 -33 -37 12 -71 9 -68 -6 2
-10 -5 -12 -29 -7 -40 8 -79 -2 -79 -20 0 -9 -11 -14 -29 -14 -16 0 -36 -7
-45 -15 -8 -8 -24 -15 -35 -15 -12 0 -30 -9 -41 -20 -11 -11 -24 -20 -29 -20
-14 0 -71 -69 -71 -85 0 -19 10 -19 35 -1 19 12 51 22 103 31 13 2 30 9 38 16
13 10 17 10 23 0 7 -10 15 -9 41 4 26 13 34 14 41 4 6 -10 13 -10 34 -1 19 9
31 9 40 2 7 -6 20 -7 29 -4 15 6 15 3 5 -19 -10 -22 -15 -24 -42 -16 -20 5
-35 5 -41 -1 -6 -6 -25 -10 -43 -10 -21 0 -36 -6 -39 -15 -4 -9 -19 -15 -39
-15 -20 0 -35 -6 -39 -15 -3 -8 -12 -15 -20 -15 -17 0 -76 -65 -76 -85 0 -17
21 -20 36 -5 10 10 36 18 79 24 11 1 30 8 43 15 18 10 22 9 22 -4 0 -17 25
-21 35 -5 5 8 11 8 20 0 7 -6 21 -7 31 -3 17 6 17 4 -2 -28 -18 -30 -24 -33
-56 -31 -29 3 -36 0 -41 -19 -4 -15 -11 -20 -22 -15 -24 9 -65 -4 -65 -20 0
-8 -4 -14 -10 -14 -13 0 -60 -75 -60 -95 0 -20 12 -19 41 4 13 10 29 16 35 14
6 -2 17 3 23 11 7 8 19 12 27 9 8 -3 20 0 28 6 24 20 28 -18 7 -60 -40 -77
-43 -79 -78 -73 -25 5 -34 2 -39 -10 -3 -9 -17 -16 -29 -16 -26 0 -100 -64
-91 -78 3 -5 18 -7 32 -4 19 3 25 1 20 -7 -4 -6 -14 -11 -22 -11 -18 0 -124
-77 -124 -90 0 -6 26 -9 60 -8 33 2 60 0 60 -4 0 -5 -7 -8 -17 -8 -23 0 -105
-49 -98 -60 3 -4 -12 -19 -32 -31 -35 -22 -36 -24 -14 -29 l23 -5 -21 -19
c-11 -10 -18 -23 -15 -27 3 -5 0 -9 -5 -9 -14 0 -91 -70 -91 -82 0 -6 11 -8
28 -4 15 4 36 8 46 10 10 1 26 12 35 23 9 11 21 18 28 16 6 -2 18 3 27 12 9 9
20 14 26 10 5 -3 19 9 30 27 18 29 20 30 20 11 0 -34 18 -28 43 15 l22 37 6
-71 c4 -40 11 -80 17 -90 10 -18 11 -17 20 6 43 114 63 298 35 331 -9 11 -8
19 3 33 13 19 14 19 14 -7 0 -15 5 -27 10 -27 6 0 10 -10 10 -23 0 -13 6 -29
12 -35 9 -9 12 -52 12 -142 -1 -72 3 -130 7 -130 15 0 48 61 65 117 21 73 27
258 9 293 -8 15 -12 36 -9 47 4 16 0 22 -20 27 l-25 6 20 35 c18 30 23 33 35
21 8 -8 14 -24 14 -35 0 -12 6 -21 13 -21 7 0 18 -21 26 -48 7 -26 16 -56 21
-67 5 -11 14 -37 20 -58 7 -21 15 -35 18 -32 16 16 28 86 26 150 -4 106 -4
107 -17 129 -6 12 -10 26 -9 32 1 6 -5 17 -13 24 -8 7 -15 21 -15 31 0 11 -3
19 -7 19 -26 1 -33 17 -20 48 l13 31 32 -50 c18 -27 37 -47 41 -44 5 3 12 -6
15 -20 3 -13 15 -29 26 -35 11 -6 20 -17 20 -25 0 -7 6 -26 14 -42 7 -15 24
-49 36 -75 37 -78 52 -64 46 40 -3 48 -6 98 -6 112 -1 14 -6 30 -12 37 -5 7
-11 24 -13 40 -1 15 -14 36 -27 48 -13 11 -22 27 -20 33 2 7 -10 18 -27 25
-20 7 -29 17 -28 30 2 15 -19 36 -40 43 -2 0 5 16 15 35 16 31 21 34 37 25 11
-6 26 -19 33 -28 7 -10 19 -18 25 -18 7 0 17 -10 22 -22 6 -13 16 -23 24 -23
12 0 53 -68 123 -203 25 -50 54 13 37 82 -5 23 -11 51 -13 63 -2 13 -9 29 -15
37 -7 8 -10 19 -7 24 3 6 -1 15 -10 22 -8 7 -13 19 -10 26 3 7 -2 18 -11 25
-8 7 -19 22 -24 34 -31 66 -49 85 -86 85 -16 0 -20 5 -16 19 5 20 -21 36 -40
24 -7 -4 -8 0 -3 13 4 10 15 41 23 69 l15 49 14 -27 c16 -31 34 -36 34 -10 0
11 7 4 18 -17 21 -39 42 -50 42 -23 1 17 2 17 16 -2 8 -11 23 -20 32 -20 9 0
23 -14 31 -30 8 -17 18 -33 23 -36 6 -4 15 -15 21 -27 45 -78 99 -162 107
-167 19 -12 -2 166 -22 192 -6 7 -8 19 -5 27 3 7 -7 26 -23 41 -16 15 -26 33
-23 41 3 7 -8 21 -24 31 -16 10 -27 25 -25 34 2 10 -8 21 -27 29 -17 7 -28 17
-25 22 9 14 -15 28 -47 28 -15 0 -32 7 -39 15 -7 9 -21 13 -30 10 -17 -5 -17
-3 -2 38 l16 45 20 -25 c17 -23 21 -24 31 -9 11 15 15 14 39 -5 14 -11 30 -18
34 -15 10 6 63 -10 105 -31 16 -9 27 -10 27 -4 0 16 158 -146 177 -182 16 -30
18 -31 21 -9 4 28 -18 102 -49 164 -5 10 -9 24 -9 33 0 8 -9 19 -20 25 -11 6
-17 17 -14 25 4 9 -7 17 -35 26 -23 7 -41 18 -41 26 0 7 -13 16 -30 20 -16 3
-30 11 -30 18 0 14 -22 25 -51 25 -10 0 -18 6 -17 12 2 8 -12 15 -32 18 -22 3
-35 11 -35 20 0 9 -11 16 -28 18 -19 2 -27 8 -23 17 2 7 10 40 17 74 6 34 14
61 18 61 3 0 12 -9 19 -20 16 -26 52 -27 52 0 0 17 2 17 25 -6 21 -21 28 -24
41 -13 11 9 18 9 26 1 16 -16 48 -15 48 1 0 21 72 13 122 -14 10 -5 26 -9 37
-9 10 0 24 -7 31 -15 7 -8 16 -15 21 -15 5 0 32 -18 61 -40 55 -41 68 -47 68
-30 0 27 -90 140 -111 140 -5 0 -9 7 -9 16 0 9 -13 21 -29 27 -16 6 -32 19
-34 29 -4 12 -15 18 -35 18 -17 0 -32 6 -36 15 -3 8 -17 15 -31 15 -14 0 -34
5 -44 12 -15 9 -28 9 -55 1 -32 -10 -35 -9 -38 11 -2 16 -10 21 -31 21 -19 -1
-26 3 -22 12 7 20 -22 28 -42 12 -15 -13 -16 -11 -10 11 3 14 9 56 12 93 7 63
8 67 22 47 8 -12 23 -20 32 -18 9 2 30 -5 45 -15 15 -10 34 -16 41 -13 8 3 27
-1 42 -9 24 -13 29 -13 38 -1 8 10 16 11 28 4 12 -6 22 -6 32 2 10 9 19 9 35
0 15 -8 25 -8 34 -1 10 8 17 7 26 -4 9 -11 22 -14 42 -10 20 5 30 2 34 -9 3
-9 13 -16 21 -16 9 0 36 -18 60 -41 47 -43 59 -45 49 -5 -9 36 -134 186 -156
186 -4 0 -17 9 -30 20 -13 11 -36 20 -52 20 -15 0 -28 5 -28 11 0 7 -14 10
-35 7 -29 -3 -35 -1 -35 15 0 17 -5 19 -45 13 -38 -6 -44 -5 -39 8 5 13 -2 16
-35 16 -32 0 -39 3 -35 15 9 23 -22 28 -52 9 l-27 -18 6 39 c4 22 7 51 7 64 0
23 1 23 18 8 25 -23 42 -21 42 4 0 20 1 20 31 -6 34 -28 56 -28 51 -1 -3 15 1
14 26 -4 28 -21 59 -20 47 1 -9 13 2 11 37 -7 25 -13 32 -14 39 -3 7 11 14 10
39 -4 17 -11 30 -14 30 -7 0 7 6 8 19 0 11 -5 26 -10 35 -10 16 0 131 -73 141
-90 11 -19 23 -10 17 13 -6 25 -127 147 -147 147 -7 0 -15 9 -18 20 -4 15 -14
20 -41 20 -24 0 -36 5 -36 14 0 19 -24 27 -59 20 -27 -6 -29 -4 -24 16 6 22 4
23 -39 17 -43 -6 -46 -5 -40 15 4 18 2 20 -24 16 -16 -3 -37 -9 -47 -13 -16
-6 -18 -4 -15 16 2 19 -2 25 -20 27 -13 2 -32 -4 -43 -14 -19 -17 -19 -16 -18
42 0 57 1 58 16 37 20 -30 53 -30 53 -1 l0 21 23 -21 c27 -25 45 -28 53 -8 4
11 11 8 29 -10 28 -28 43 -30 51 -9 5 12 10 12 32 -5 18 -14 34 -19 52 -15 18
4 31 1 40 -10 7 -8 17 -15 23 -15 18 0 121 -52 157 -80 53 -40 60 -43 60 -24
0 9 -18 34 -40 56 -22 22 -40 43 -40 47 0 3 -16 20 -36 36 -20 17 -46 40 -58
53 -13 12 -30 22 -38 22 -9 0 -18 9 -21 20 -3 13 -14 20 -29 20 -28 0 -42 9
-51 33 -4 10 -17 17 -33 17 -15 0 -32 7 -38 16 -8 10 -27 16 -49 16 -32 0 -37
3 -37 24 0 27 -27 33 -49 12 -11 -11 -12 -7 -6 20 9 45 -19 56 -50 20 l-22
-26 -7 46 c-3 26 -9 59 -12 74 -5 23 -3 26 14 21 16 -4 21 1 24 19 3 22 4 21
21 -9 18 -33 42 -43 49 -21 3 7 17 -2 36 -22 27 -30 33 -33 50 -23 17 10 23 8
43 -13 13 -13 30 -23 39 -22 8 1 26 -5 40 -15 14 -10 26 -13 30 -7 4 6 17 -1
30 -15 13 -14 29 -24 36 -21 7 2 22 -6 35 -20 12 -13 27 -24 33 -25 11 0 30
-21 82 -86 23 -29 54 -44 54 -27 0 14 -65 126 -86 150 -13 14 -24 29 -24 34 0
5 -13 19 -29 31 -16 12 -27 27 -24 35 2 7 -7 20 -22 30 -15 10 -31 28 -36 41
-5 15 -20 26 -39 30 -21 4 -29 10 -26 20 4 9 -8 20 -34 32 -22 10 -37 21 -33
25 10 10 -17 26 -45 26 -15 0 -26 7 -29 20 -3 13 -14 20 -28 20 -36 0 -54 10
-48 26 4 10 -4 14 -31 14 -20 0 -36 5 -36 10 0 19 -38 10 -68 -15 l-30 -25
-12 52 c-39 167 -152 408 -190 408 -4 0 -13 -7 -20 -15z"/>
</g>
</svg>
